<svg width="29" height="21" viewBox="0 0 29 21" fill="none" xmlns="http://www.w3.org/2000/svg">
<path d="M1.57468 4.95823L0.269161 4.95823L0.26916 3.65271L1.57468 3.65271L1.57468 4.95823ZM16.3472 17.8842C16.592 18.129 16.7296 18.4611 16.7296 18.8074C16.7296 19.1537 16.592 19.4858 16.3472 19.7307C16.1023 19.9756 15.7702 20.1132 15.4239 20.1132C15.0776 20.1132 14.7455 19.9756 14.5006 19.7307L16.3472 17.8842ZM0.269161 14.191L0.269161 4.95823L2.8802 4.95823L2.8802 14.191L0.269161 14.191ZM1.57468 3.65271L10.8075 3.65272L10.8075 6.26375L1.57468 6.26375L1.57468 3.65271ZM2.49796 4.03495L16.3472 17.8842L14.5006 19.7307L0.651399 5.88151L2.49796 4.03495ZM27.4265 16.0376L27.4265 17.3431L28.732 17.3431L28.732 16.0376L27.4265 16.0376ZM14.5006 1.26511C14.2557 1.02024 13.9236 0.882676 13.5773 0.882676C13.231 0.882676 12.8989 1.02024 12.654 1.26511C12.4092 1.50998 12.2716 1.8421 12.2716 2.18839C12.2716 2.53469 12.4092 2.8668 12.654 3.11167L14.5006 1.26511ZM18.1937 17.3431L27.4265 17.3431L27.4265 14.7321L18.1937 14.7321L18.1937 17.3431ZM28.732 16.0376L28.732 6.80479H26.121V16.0376L28.732 16.0376ZM28.3498 15.1143L14.5006 1.26511L12.654 3.11167L26.5032 16.9609L28.3498 15.1143Z" fill="white"/>
</svg>
