<svg width="36" height="26" viewBox="0 0 36 26" fill="none" xmlns="http://www.w3.org/2000/svg">
<path d="M7.18629 26V24.2799H9.69943L12.9189 13.3673C13.0823 12.7537 13.4109 12.2687 13.9046 11.912C14.3983 11.5554 14.9503 11.3776 15.5606 11.3788H20.4394C21.0509 11.3788 21.6029 11.5565 22.0954 11.912C22.5891 12.2687 22.9177 12.7537 23.0811 13.3673L26.3006 24.2799H28.8137V26H7.18629ZM11.5183 24.2799H24.4817L21.4286 13.8592C21.3623 13.6172 21.236 13.4303 21.0497 13.2984C20.8634 13.1666 20.6491 13.1001 20.4069 13.0989H15.5931C15.352 13.0989 15.1377 13.1654 14.9503 13.2984C14.764 13.4303 14.6377 13.6172 14.5714 13.8592L11.5183 24.2799ZM17.1429 6.88058V0H18.8571V6.88058H17.1429ZM26.4857 10.7733L25.2634 9.54681L30.1286 4.70632L31.3097 5.8915L26.4857 10.7733ZM29.1429 18.9216V17.2015H36V18.9216H29.1429ZM9.51429 10.7716L4.692 5.8915L5.87143 4.70632L10.7383 9.54681L9.51429 10.7716ZM0 18.9216V17.2015H6.85714V18.9216H0Z" fill="white"/>
</svg>
