<svg xmlns="http://www.w3.org/2000/svg" viewBox="0 0 139.99 153"><defs><style>.cls-1{fill:none;}</style></defs><g id="레이어_2" data-name="레이어 2"><g id="레이어_1-2" data-name="레이어 1"><circle class="cls-1" cx="65.38" cy="40.5" r="30.5"/><path d="M64.38,83c14,0,27.39,7.44,37.64,20.94q1.71,2.25,3.25,4.67l7.21-7.21c-7.72-11.38-17.72-20-29.07-24.64a40.49,40.49,0,1,0-36.91-.43C20.75,86.11,1.61,116.45,0,153H10c.89-18.63,6.74-35.9,16.72-49.06C37,90.44,50.35,83,64.38,83ZM34.88,40.5A30.5,30.5,0,1,1,65.38,71,30.53,30.53,0,0,1,34.88,40.5Z"/><path d="M73.08,140.34v-25.6h6l.55,3.31h.13a18.72,18.72,0,0,1,3.43-2.79,8.09,8.09,0,0,1,4.38-1.16,7.76,7.76,0,0,1,4.4,1.12,7.4,7.4,0,0,1,2.64,3.2,22,22,0,0,1,3.65-3,8,8,0,0,1,4.47-1.27c2.75,0,4.77.92,6,2.75a13.09,13.09,0,0,1,1.9,7.56v15.93h-7.35v-15a7,7,0,0,0-.77-3.9,2.9,2.9,0,0,0-2.5-1,4.24,4.24,0,0,0-2.08.64,11.43,11.43,0,0,0-2.41,1.9v17.39H88.2v-15a6.78,6.78,0,0,0-.8-3.9,3,3,0,0,0-2.52-1,4.31,4.31,0,0,0-2.09.64,10.79,10.79,0,0,0-2.36,1.9v17.39Z"/><path d="M120,150.42a12.86,12.86,0,0,1-2-.14,13.07,13.07,0,0,1-1.61-.36l1.36-5.63a5.37,5.37,0,0,1,.82.18,3.14,3.14,0,0,0,.91.14,4.24,4.24,0,0,0,3-1,5.69,5.69,0,0,0,1.56-2.52l.41-1.41-9.89-25h7.44L125.64,126c.4,1.18.75,2.38,1.07,3.59s.66,2.43,1,3.67H128c.24-1.21.51-2.42.82-3.63l.9-3.63L133,114.74h7l-8.94,26a24.76,24.76,0,0,1-2.64,5.31,9.34,9.34,0,0,1-8.44,4.36Z"/></g></g></svg>